<?xml version="1.0" encoding="UTF-8"?>
<svg viewBox="0 0 400 300" xmlns="http://www.w3.org/2000/svg">
    <rect x="150" y="30" width="100" height="60" rx="5" fill="#0078d7" />
    <text x="200" y="60" text-anchor="middle" fill="white" font-size="14">규제샌드박스</text>
    <text x="200" y="80" text-anchor="middle" fill="white" font-size="12">특례 신청</text>
    
    <path d="M150,120 h100 v40 h-100 v-40" fill="#f5f5f5" stroke="#333" />
    <text x="200" y="145" text-anchor="middle" font-size="12">여객자동차</text>
    <text x="200" y="160" text-anchor="middle" font-size="12">운수사업법 제10조</text>
    
    <rect x="60" y="200" width="80" height="50" rx="5" fill="#4caf50" />
    <text x="100" y="225" text-anchor="middle" fill="white" font-size="12">시범노선</text>
    <text x="100" y="240" text-anchor="middle" fill="white" font-size="10">3개 노선</text>
    
    <rect x="160" y="200" width="80" height="50" rx="5" fill="#4caf50" />
    <text x="200" y="225" text-anchor="middle" fill="white" font-size="12">시범규모</text>
    <text x="200" y="240" text-anchor="middle" fill="white" font-size="10">40대 규모</text>
    
    <rect x="260" y="200" width="80" height="50" rx="5" fill="#4caf50" />
    <text x="300" y="225" text-anchor="middle" fill="white" font-size="12">시범기간</text>
    <text x="300" y="240" text-anchor="middle" fill="white" font-size="10">6개월</text>
    
    <line x1="200" y1="90" x2="200" y2="120" stroke="#333" stroke-width="2" />
    <line x1="200" y1="160" x2="200" y2="180" stroke="#333" stroke-width="2" />
    <line x1="200" y1="180" x2="100" y2="180" stroke="#333" stroke-width="2" />
    <line x1="200" y1="180" x2="300" y2="180" stroke="#333" stroke-width="2" />
    <line x1="100" y1="180" x2="100" y2="200" stroke="#333" stroke-width="2" />
    <line x1="200" y1="180" x2="200" y2="200" stroke="#333" stroke-width="2" />
    <line x1="300" y1="180" x2="300" y2="200" stroke="#333" stroke-width="2" />
    
    <rect x="330" y="115" width="30" height="30" fill="#ff4081" stroke="#333" />
    <line x1="335" y1="145" x2="345" y2="115" stroke="#333" stroke-width="2" />
    <line x1="345" y1="145" x2="355" y2="115" stroke="#333" stroke-width="2" />
    <text x="345" y="170" text-anchor="middle" font-size="10">법규제한</text>
</svg>